<svg width="26" height="26" viewBox="0 0 26 26" fill="none" xmlns="http://www.w3.org/2000/svg">
<path d="M23.2143 0.690918H2.78571C1.24777 0.690918 0 1.87586 0 3.33637V22.7364C0 24.1969 1.24777 25.3818 2.78571 25.3818H23.2143C24.7522 25.3818 26 24.1969 26 22.7364V3.33637C26 1.87586 24.7522 0.690918 23.2143 0.690918ZM16.0933 21.838C15.6058 21.9207 15.4259 21.6341 15.4259 21.3971C15.4259 21.0995 15.4375 19.5784 15.4375 18.3493C15.4375 17.4896 15.1357 16.9439 14.7817 16.6573C16.929 16.4314 19.1924 16.1503 19.1924 12.6285C19.1924 11.6255 18.8152 11.1239 18.2 10.4791C18.2987 10.2421 18.6295 9.26661 18.1013 7.99899C17.2946 7.762 15.4491 8.98553 15.4491 8.98553C14.683 8.7816 13.8531 8.67689 13.0348 8.67689C12.2165 8.67689 11.3866 8.7816 10.6205 8.98553C10.6205 8.98553 8.775 7.762 7.9683 7.99899C7.44018 9.26109 7.76518 10.2366 7.86964 10.4791C7.25446 11.1239 6.96429 11.6255 6.96429 12.6285C6.96429 16.1338 9.12902 16.4314 11.2763 16.6573C10.9978 16.8943 10.7482 17.3022 10.6612 17.8864C10.1098 18.1234 8.69955 18.5312 7.85804 17.1203C7.32991 16.2495 6.37812 16.1779 6.37812 16.1779C5.43795 16.1668 6.31429 16.74 6.31429 16.74C6.94107 17.0156 7.38214 18.0738 7.38214 18.0738C7.94509 19.7106 10.6379 19.1595 10.6379 19.1595C10.6379 19.9256 10.6496 21.1712 10.6496 21.3971C10.6496 21.6341 10.4754 21.9207 9.98214 21.838C6.15179 20.62 3.47054 17.1589 3.47054 13.1135C3.47054 8.0541 7.54464 4.21268 12.8723 4.21268C18.2 4.21268 22.5179 8.0541 22.5179 13.1135C22.5237 17.1589 19.9237 20.6255 16.0933 21.838ZM10.4 18.4706C10.2897 18.4926 10.1853 18.4485 10.1737 18.3769C10.1621 18.2942 10.2375 18.2226 10.3478 18.2005C10.458 18.1895 10.5625 18.2336 10.5741 18.3052C10.5915 18.3769 10.5161 18.4485 10.4 18.4706ZM9.84866 18.421C9.84866 18.4926 9.76161 18.5533 9.64554 18.5533C9.51786 18.5643 9.4308 18.5037 9.4308 18.421C9.4308 18.3493 9.51786 18.2887 9.63393 18.2887C9.7442 18.2777 9.84866 18.3383 9.84866 18.421ZM9.05357 18.3604C9.03036 18.432 8.91429 18.4651 8.81562 18.432C8.70536 18.41 8.62991 18.3273 8.65313 18.2556C8.67634 18.184 8.79241 18.1509 8.89107 18.173C9.00714 18.206 9.08259 18.2887 9.05357 18.3604ZM8.33973 18.0627C8.2875 18.1234 8.17723 18.1123 8.09018 18.0297C8.00312 17.958 7.97991 17.8533 8.03795 17.8037C8.09018 17.7431 8.20045 17.7541 8.2875 17.8368C8.36295 17.9084 8.39196 18.0187 8.33973 18.0627ZM7.81161 17.5612C7.75938 17.5943 7.66071 17.5612 7.59687 17.4785C7.53304 17.3959 7.53304 17.3022 7.59687 17.2636C7.66071 17.214 7.75938 17.2526 7.81161 17.3352C7.87545 17.4179 7.87545 17.5171 7.81161 17.5612V17.5612ZM7.43438 17.0266C7.38214 17.0762 7.29509 17.0487 7.23125 16.9935C7.16741 16.9219 7.1558 16.8392 7.20804 16.8006C7.26027 16.751 7.34732 16.7786 7.41116 16.8337C7.475 16.9054 7.48661 16.988 7.43438 17.0266ZM7.04554 16.6188C7.02232 16.6684 6.94687 16.6794 6.88304 16.6408C6.80759 16.6077 6.77277 16.5471 6.79598 16.4975C6.8192 16.4644 6.88304 16.4479 6.95848 16.4755C7.03393 16.5141 7.06875 16.5747 7.04554 16.6188Z" fill="#F2FFFD"/>
</svg>
