<svg width="25" height="26" viewBox="0 0 25 26" fill="none" xmlns="http://www.w3.org/2000/svg">
<path d="M23.2143 0.690918H1.78013C0.797991 0.690918 0 1.49007 0 2.47109V23.6017C0 24.5827 0.797991 25.3818 1.78013 25.3818H23.2143C24.1964 25.3818 25 24.5827 25 23.6017V2.47109C25 1.49007 24.1964 0.690918 23.2143 0.690918ZM7.5558 21.8546H3.85045V10.0713H7.56138V21.8546H7.5558ZM5.70312 8.46195C4.51451 8.46195 3.55469 7.50848 3.55469 6.34007C3.55469 5.17166 4.51451 4.21819 5.70312 4.21819C6.88616 4.21819 7.85156 5.17166 7.85156 6.34007C7.85156 7.51399 6.89174 8.46195 5.70312 8.46195ZM21.4453 21.8546H17.74V16.1227C17.74 14.7559 17.7121 12.9978 15.8147 12.9978C13.8839 12.9978 13.5882 14.4859 13.5882 16.0235V21.8546H9.88281V10.0713H13.4375V11.6806H13.4877C13.9844 10.7547 15.1953 9.77916 16.9978 9.77916C20.7478 9.77916 21.4453 12.2207 21.4453 15.3952V21.8546Z" fill="#F2FFFD"/>
</svg>

