<svg width="25" height="20" viewBox="0 0 25 20" fill="none" xmlns="http://www.w3.org/2000/svg">
<path d="M2.34375 0.653809C1.0498 0.653809 0 1.70446 0 2.99945C0 3.73734 0.34668 4.43126 0.9375 4.87596L11.5625 12.8511C12.1191 13.2665 12.8809 13.2665 13.4375 12.8511L24.0625 4.87596C24.6533 4.43126 25 3.73734 25 2.99945C25 1.70446 23.9502 0.653809 22.6562 0.653809H2.34375ZM0 6.12696V16.2914C0 18.0164 1.40137 19.4189 3.125 19.4189H21.875C23.5986 19.4189 25 18.0164 25 16.2914V6.12696L14.375 14.1021C13.2617 14.9378 11.7383 14.9378 10.625 14.1021L0 6.12696Z" fill="#F2FFFD"/>
</svg>
